<svg xmlns="http://www.w3.org/2000/svg" viewBox="0 0 390.67 376.5"><defs><style>.cls-1{fill:#231f20;}</style></defs><title>loopyPencil</title><g id="Layer_2" data-name="Layer 2"><g id="Layer_1-2" data-name="Layer 1"><path class="cls-1" d="M210.85,374.44c.37,2.79.64,1.7.77,2.11C210.85,372,210.76,374.56,210.85,374.44Z" transform="translate(0 -0.05)"/><path class="cls-1" d="M206.07,328l.19.82c-.21-2.29-.42-4.58-.61-6.87C205.78,324,205.91,326,206.07,328Z" transform="translate(0 -0.05)"/><path class="cls-1" d="M206.68,284.37a62.49,62.49,0,0,0-.78,10.41c-.08,4.42-.06,9.29-.21,13.19l-.17,1.28.56,3.51C205.94,303.31,206,291,206.68,284.37Z" transform="translate(0 -0.05)"/><path class="cls-1" d="M210.43,261.4c-.43,1.39.36-5-.73,5.36.1-.52.12-.67.18-1C210,264.86,210.12,263.58,210.43,261.4Z" transform="translate(0 -0.05)"/><path class="cls-1" d="M209.88,265.79c-.5,4.55.57-3,0,0Z" transform="translate(0 -0.05)"/><path class="cls-1" d="M212.82,244.88c-.3,2-.53,4-.78,6,.18-.6.5-2.23.75-3.45s.46-2,.34-1.05C214.12,240.26,213.73,241.47,212.82,244.88Z" transform="translate(0 -0.05)"/><path class="cls-1" d="M213.4,239.17c-.17,1-.37,2.05-.51,3.08A15.6,15.6,0,0,0,213.4,239.17Z" transform="translate(0 -0.05)"/><path class="cls-1" d="M211.93,248.81c.27-2.19.63-4.37,1-6.56a5.57,5.57,0,0,0-.48,3C212.31,244.69,212.23,246,211.93,248.81Z" transform="translate(0 -0.05)"/><path class="cls-1" d="M211.21,252.5c-.65,3.32-1.39,7.64-.75,1.6-.82,5.73-.9,8.2-.75,7.79S210.39,258.21,211.21,252.5Z" transform="translate(0 -0.05)"/><path class="cls-1" d="M206.1,282.1c-.17,1.51-.36,3-.5,4.53l0,3.94c0-1,.16-3.17.3-5.08A17.84,17.84,0,0,0,206.1,282.1Z" transform="translate(0 -0.05)"/><path class="cls-1" d="M222.55,208.8c0-.41-1,1.77-1.35,2.14-.4,1.42-.84,2.83-1.21,4.27C220.77,213.06,222.23,209,222.55,208.8Z" transform="translate(0 -0.05)"/><path class="cls-1" d="M221.2,210.94c.59-2.14,1.3-4.23,2-6.35C221.09,210.15,220.94,211.25,221.2,210.94Z" transform="translate(0 -0.05)"/><path class="cls-1" d="M212.84,238q-.87,5.41-1.49,10.88c.53-4.33,1.19-8.65,1.91-13Z" transform="translate(0 -0.05)"/><path class="cls-1" d="M232.49,185.66l-1.38,3.48c.86-2,1.66-4.12,2.59-6.14C233.26,183.87,232.88,184.77,232.49,185.66Z" transform="translate(0 -0.05)"/><path class="cls-1" d="M240.94,171.33c-.64,1.23,0,.51.58-.19s1.21-1.37.45-.14c1.26-1.86,2.44-3.58,3.54-5.19s2.14-3.12,3.19-4.49c-1.16,1.42-2.27,3-3.59,4.56l-2,2.59C242.44,169.37,241.67,170.29,240.94,171.33Z" transform="translate(0 -0.05)"/><path class="cls-1" d="M252.32,156.77c-1.25,1.34-2.34,2.92-3.62,4.55l1.81-2.28.89-1.15Z" transform="translate(0 -0.05)"/><path class="cls-1" d="M227.5,194.16a34.38,34.38,0,0,0,2.58-4.54l-1.49,2.17C228.26,192.51,227.85,193.31,227.5,194.16Z" transform="translate(0 -0.05)"/><path class="cls-1" d="M228.54,191.87l.05-.08c.61-1.28,1.12-2.36,1.53-3.21s.75-1.47.95-1.84l-.88,1.69Z" transform="translate(0 -0.05)"/><path class="cls-1" d="M227.23,194.76l.27-.6A1.48,1.48,0,0,0,227.23,194.76Z" transform="translate(0 -0.05)"/><path class="cls-1" d="M217.35,221.05c.82-3.83,3-11.72.35-4.26C217.18,219.58,218.64,215.29,217.35,221.05Z" transform="translate(0 -0.05)"/><path class="cls-1" d="M225.46,197.53c-.94,2.16-1.82,4.34-2.7,6.53.15-.09.74-1.23.19.63.37-1.21.82-2.39,1.23-3.59S225,198.7,225.46,197.53Z" transform="translate(0 -0.05)"/><polygon class="cls-1" points="226.7 194.25 225.46 197.48 226.53 195.09 226.7 194.25"/><path class="cls-1" d="M244.31,165.62c.86-1.24,1.81-2.51,2.82-3.84s2.21-2.62,3.42-4a100.7,100.7,0,0,0-7.71,9.29C242.62,167.56,241.8,169.09,244.31,165.62Z" transform="translate(0 -0.05)"/><path class="cls-1" d="M235.92,177.91c.11-.18.24-.41.33-.59C236,177.66,235.82,177.94,235.92,177.91Z" transform="translate(0 -0.05)"/><path class="cls-1" d="M279.29,135.27l-.55.21a.91.91,0,0,1-.08.13Z" transform="translate(0 -0.05)"/><path class="cls-1" d="M242.38,167.53a37.26,37.26,0,0,0-3.59,5.47l1.89-2.94c.67-1,1.41-2,2.16-3C242.93,166.79,242.93,166.73,242.38,167.53Z" transform="translate(0 -0.05)"/><path class="cls-1" d="M259.47,149.51c-1.26.93-2.54,2.15-4,3.36C256.73,151.92,259.09,149.92,259.47,149.51Z" transform="translate(0 -0.05)"/><path class="cls-1" d="M236.88,176.52l-.22.39C237.26,176.12,237.15,176.2,236.88,176.52Z" transform="translate(0 -0.05)"/><path class="cls-1" d="M236.88,176.52c.75-1.36,1.3-2.46,1.91-3.52-1,1.53-1.81,3-2.54,4.32C236.47,177,236.71,176.73,236.88,176.52Z" transform="translate(0 -0.05)"/><path class="cls-1" d="M288.36,128.07a6.35,6.35,0,0,1-1.45.9c-.84.44-2,.95-3.31,1.65s-2.84,1.39-4.39,2.17-3.16,1.62-4.74,2.37c-2.84,1.93-3.13,2.57-2,2.43a13.59,13.59,0,0,0,2.52-.73c1.08-.4,2.42-.83,3.78-1.38.13-.21-.05-.52,6.14-3.67-1.13.44-4.72,1.89-7.23,3.19s-4.18,2-1.7.37c2-1.13,3.42-2,4.52-2.49s1.84-.83,2.45-1.07c1.22-.47,1.88-.71,4-1.44-1.86.5.78-.79,3.66-2.18s6.09-2.6,5-2.61c-2.54,1-5.14,1.88-7.6,3.06C287.82,128.6,290.51,127.3,288.36,128.07Z" transform="translate(0 -0.05)"/><path class="cls-1" d="M267.56,142.37c-.78.54-1.52,1.14-2.26,1.73a43.09,43.09,0,0,1,3.77-2.5l2.07-1.24c.76-.42,1.6-.84,2.55-1.34l2.38-1.62c.64-.4,1.13-.71,1.49-1a5.51,5.51,0,0,0,1.1-.84c-1,.56-2.06,1.1-3.07,1.67l-3,1.82-1.5.91-1.44,1-2.88,2Z" transform="translate(0 -0.05)"/><path class="cls-1" d="M255.63,152.4a45.66,45.66,0,0,1,3.2-3.68c1-1.07,1.41-1.63-.35-.43-6.17,5.72-4.06,4.28-7.41,8,2.31-2.47,3.31-3.52,3.65-3.77s-.08.16-.57.7a9,9,0,0,0-1,1.28s.16-.06.51-.39.93-.88,1.84-1.68c-1,.92-1.79,1.85-2.61,2.74s-1.63,1.71-2.36,2.56c.82-.89,1.69-1.71,2.51-2.53s1.62-1.63,2.46-2.34l-.24.2-.05,0h0c-.46.36-.62.46-.13,0l.2-.2a2.08,2.08,0,0,1,.33-.54c2.88-2.62.52-.34-.33.54,0,0-.08.13-.07.16l0,0c1.6-1.57,3.16-3.19,4.87-4.64.84-.74,1.67-1.5,2.53-2.22l2.62-2.11-1.84,1.39c-.67.49-1.39,1.06-2.15,1.74l-2.58,2.23C257.77,150.3,256.78,151.31,255.63,152.4Z" transform="translate(0 -0.05)"/><path class="cls-1" d="M219.05,209.54c.17-.4.19-.37.23-.39C219.51,208.29,219.58,208,219.05,209.54Z" transform="translate(0 -0.05)"/><path class="cls-1" d="M221.18,204.29a44.58,44.58,0,0,1-1.53,4.85c-1,2.63-.19-.08-.37,0-.51,1.9-1.86,6.6.27.84l.25-.94c1.92-5.19,5.09-11.54,4.78-10.62A38.8,38.8,0,0,0,221.18,204.29Z" transform="translate(0 -0.05)"/><path class="cls-1" d="M235.71,175.88c.48-.81.94-1.64,1.44-2.45l1.53-2.39c1-1.62,2.09-3.16,3.18-4.72-1.24,1.49-2.49,3-3.64,4.54l.35-.12c-.91,1.34-1.54,2.27-1.95,2.95a12.58,12.58,0,0,0-.72,1.35C235.67,175.56,235.84,175.49,235.71,175.88Z" transform="translate(0 -0.05)"/><path class="cls-1" d="M280.52,134.85,279.43,136l1.34-.91,1.38-.85,2.78-1.67C283.46,133.3,282,134.05,280.52,134.85Z" transform="translate(0 -0.05)"/><path class="cls-1" d="M293.87,129.11l-.37.55c1.18-.49,2.35-1,3.55-1.47C296,128.46,294.93,128.81,293.87,129.11Z" transform="translate(0 -0.05)"/><path class="cls-1" d="M85.43,210.2c1.08.22,2.18.33,3.27.48C87.15,210.46,86.16,210.34,85.43,210.2Z" transform="translate(0 -0.05)"/><path class="cls-1" d="M62.49,203.31l-.62,0C62.94,203.59,63.4,203.68,62.49,203.31Z" transform="translate(0 -0.05)"/><path class="cls-1" d="M227.75,245.94l-2.3-2.8c-.74-.91-1.45-1.75-2-2.53-1.13-1.5-1.89-2.42-1.86-2.06l.64,1.4,1.58,1.79,1.48,1.53C226.22,244.24,227,245.12,227.75,245.94Z" transform="translate(0 -0.05)"/><path class="cls-1" d="M66.1,69.17l1.43,0c1.18-.27,2.3-.37,3.3-.53l-2.27.17Z" transform="translate(0 -0.05)"/><path class="cls-1" d="M62.91,71.33c-1,.07-2.09.22-3.13.37l-1.56.22c-.52.09-1,.21-1.55.3.7-.12,1.55-.29,2.58-.41S61.48,71.44,62.91,71.33Z" transform="translate(0 -0.05)"/><path class="cls-1" d="M188.4,148.05l1.69-3.56C186.86,149.7,188.47,147.52,188.4,148.05Z" transform="translate(0 -0.05)"/><path class="cls-1" d="M384,202.7c-.34,2.05-.81,3.85-1.13,5.52l-1.1,4.57c.68-2.4,1.34-4.57,1.71-6.33.19-.88.36-1.64.46-2.28A6.65,6.65,0,0,0,384,202.7Z" transform="translate(0 -0.05)"/><path class="cls-1" d="M75,212.41c2,.46,2.94.61,2.9.5C75.83,212.43,74.63,212.19,75,212.41Z" transform="translate(0 -0.05)"/><path class="cls-1" d="M378.3,224.22l.82-2c.92-2.88,1.71-5.82,2.65-9.39C380.69,216.32,379.41,220.31,378.3,224.22Z" transform="translate(0 -0.05)"/><path class="cls-1" d="M242.54,175.7l-.59-.95C241.84,174.7,242.11,175.11,242.54,175.7Z" transform="translate(0 -0.05)"/><path class="cls-1" d="M206.65,40.77c.11,1.38.3,3.62.48,5.74C207.08,45.47,206.94,43.74,206.65,40.77Z" transform="translate(0 -0.05)"/><path class="cls-1" d="M350.71,127.14c-2.79-1.1-.45-.15,0,0Z" transform="translate(0 -0.05)"/><path class="cls-1" d="M336.74,121.89a3.27,3.27,0,0,0,1.26-.08A4.42,4.42,0,0,1,336.74,121.89Z" transform="translate(0 -0.05)"/><path class="cls-1" d="M365.91,252.73l-.17.22C366.39,252.26,366.28,252.38,365.91,252.73Z" transform="translate(0 -0.05)"/><path class="cls-1" d="M346.51,125.45c1.05.42,2.3.82,3.6,1.36C349.56,126.51,348.44,126.17,346.51,125.45Z" transform="translate(0 -0.05)"/><path class="cls-1" d="M347,125.84a24.14,24.14,0,0,0-2.52-.77c-.2,0-.21,0,.14.12S345.76,125.43,347,125.84Z" transform="translate(0 -0.05)"/><path class="cls-1" d="M354.53,128.82c-1.5-.82-3-1.36-4.42-2,.54.26.75.38.6.33l1.53.62c.31.13.67.26,1,.44Z" transform="translate(0 -0.05)"/><path class="cls-1" d="M367.41,82.94l.44.53C370.18,85.73,369.2,84.7,367.41,82.94Z" transform="translate(0 -0.05)"/><path class="cls-1" d="M179.22,180.17l.18.31c-.06-.14-.14-.3-.2-.42Z" transform="translate(0 -0.05)"/><path class="cls-1" d="M173.65,170.28a66.37,66.37,0,0,1,5.55,9.78l-.64-3.91Z" transform="translate(0 -0.05)"/><path class="cls-1" d="M140.24,202.64c-1.14.59-2.28,1.17-3.47,1.67s-2.34,1.05-3.54,1.46a88.27,88.27,0,0,0,9-5.39c1.56-1.14,1.43-1.09-1.75.55,0,.21-.45.6-1.16,1.13-.36.26-.8.56-1.29.89s-1.08.62-1.71,1a59.62,59.62,0,0,1-9.39,4.08c-1.78.5-3.52,1.14-5.23,1.5l-2.45.61-2.24.45-1.92.42c-.59.12-1.1.21-1.54.31-.87.19-1.43.38-1.54.57l-1.27.07h-3.83c1.46-.06,1.69-.16,3.12-.21-2.47,0-4.15.05-5.51.06s-2.36.2-3.46.3-2.31.17-4,.18c-.87,0-1.86-.11-3-.21a37.79,37.79,0,0,1-4.14-.56,45.59,45.59,0,0,1-5-1.13c-.92-.29-.92-.38.59-.13-1.64-.31-3.29-.58-4.93-.93l-4.9-1.13c-2.8-.89-2-.86.74,0-1.24-.3-2.46-.73-3.68-1.08s-2.46-.73-3.67-1.15l-3.63-1.26L63.54,204l-1.79-.7h.12c-1.06-.31-2.78-.84-4.52-1.41l-4.6-1.71c-3.49-1.79,1.85.68,1,.11l-2-.8-2-.87c-1.29-.6-2.61-1.15-3.89-1.78-1.43-1-.58-.68,1.31.15s4.81,2.23,7.51,3.4a40.15,40.15,0,0,0-7.6-4.12c-1.32-.61-2.88-1.38-5-2.53A74.71,74.71,0,0,1,34,188.24l3.34,2.16c1.13.7,2.29,1.34,3.44,2-1-.84-2.09-1.63-3.25-2.49s-2.37-1.78-3.71-2.74-2.69-2.09-4.15-3.31-3-2.58-4.48-4.21a31.77,31.77,0,0,0,2.42,2.56c1.15,1.14,2.49,2.47,3.65,3.49,2.26,2.1,3.43,3.39-.33.77-.5-.41-1.05-.84-1.64-1.31l-1.89-1.6c-.67-.58-1.46-1.16-2.24-1.85s-1.65-1.44-2.6-2.23c.13-.17-.65-1.1-2-2.53l-1.1-1.16-1.19-1.38c-.85-1-1.79-2-2.67-3.24l.76-.07c-2-2.46-2.87-3.68-3.64-4.54a29,29,0,0,1-2.34-3.09c-.87-1.57-1.4-2.91-1.88-4s-.67-2-.87-2.68a8.44,8.44,0,0,1-.34-1.77c-.06-.49-.08-.91-.12-1.33-.47-1.33-.68-2.24-.85-2.79s-.25-.78-.28-.77a8.38,8.38,0,0,0,.17,1.76c.09.86.28,1.62.08,1.4s-.68-1.46-1.49-4.74a66.76,66.76,0,0,1-1.21-13A59.16,59.16,0,0,1,5.4,121.2c1-3.2,1.14-2.85.92-2s-.45,2.15,0,1c.17-1,.45-1.92.7-2.89l.38-1.44.45-1.42c.58-1.35.54-.85.52-.6.89-2.34.86-2.48.9-3a5.46,5.46,0,0,1,.37-1.29c.3-.7.8-1.8,1.75-3.56.27-1.08,2.53-4.56,5.89-8.36s7.73-7.9,11.31-11.3c2-1.4-.66,1.05.07.77a69.52,69.52,0,0,1,6-4.79c1.52-1.13,2.7-1.82,3.76-2.57a84.75,84.75,0,0,1,9.15-5.1,70.32,70.32,0,0,1,9.16-2.44,7.48,7.48,0,0,1-2.53.26c-.06-.13.59-.44,1.7-.84A51.65,51.65,0,0,1,66.1,69.17c-1.27,0-2.44,0-3.48.07l-1.46.07-1.22.14a66.32,66.32,0,0,1,12.73-1.38c.78.09.84.17.44.25a6.71,6.71,0,0,1-.9.13l-1.38.22c.87-.08,1.69-.14,2.34-.14,4.55.43,2.13.69-1.08.93-1.53-.08-3.07-.27-4.56-.26a27.56,27.56,0,0,0-4,1c-1,.34-1.51.61-1.17.75a30.07,30.07,0,0,1,4-.62c-.79.16-1.29.29-.92.33s1.7-.24,3.73-.48l2.82.66c.23-.1.45-.18.68-.26a61.62,61.62,0,0,1,15.8,2.89,66.62,66.62,0,0,1,16.45,6c1.4.74,2.81,1.6,4.3,2.47s3,1.92,4.45,3.08c3.07,2.23,6.13,5.1,9.65,8.23-3.78-2.8-1.32-.06-1.94.21a37.84,37.84,0,0,0-3.19-3.29c-.64-.6-1.32-1.22-2-1.87s-1.54-1.23-2.35-1.88c-1.61-1.32-3.48-2.52-5.35-3.84l-3-1.87c-1-.64-2-1.19-3.06-1.82a13.36,13.36,0,0,1,3,2c.1.2-.43-.07-1-.34a79.53,79.53,0,0,1,13.82,10c-.32.05.29.74,1.37,1.83s2.66,2.52,4.12,4.24c-.83-1.57,1.53.62,4.74,3.82s7,7.67,9.26,10.38c0,.27-.32.14-1.32-.91-.5-.52-1.14-1.3-2-2.3s-2.06-2.29-3.46-3.91a55.12,55.12,0,0,0,3.88,4.64c1.14,1.31,2.21,2.4,3.29,3.49s2.17,2.15,3.26,3.48a51,51,0,0,1,3.49,4.85,25.91,25.91,0,0,0-2.52-3.19c3.28,3.68,9.79,13.8,8,11.62l-1.19-1.73c1,1.44,2.08,3.08,3.2,4.88l3.61,5.67,3.72,6.09c1.24,2,2.42,4.11,3.6,6.08,4.64,7.89,8.44,14.58,9.31,15.3a8.13,8.13,0,0,1-2.32-1.8C175,170,179.72,177,184.46,183.89c-1.68-1.61.74,6.7-5.06-3.41,1.47,3,3.27,6.73,6.84,12.83-1-2.07-1.76-5.51-.23-2.8,3.35,7.93,2.4,5.45,7,15-1.57-3.05,1.31-.31,4,4.38-.57-.65-.74,1-1.84-.69l1.94,2.77,2,2.73c1.35,1.81,2.65,3.65,4.07,5.41-2-2.7-1.13,0,.27,2.73-.14-.33.18.12.79,1s1.49,2.26,2.54,3.71,2.15,3,3.14,4.44,2,2.54,2.55,3.25c-1.12-1.57-2.25-3.12-3.26-4.75,1.07,1.58,2.12,2.89,3.06,4s1.8,2.16,2.58,3c1.58,1.78,3,3,4.39,4.32l2.11,2c.75.65,1.56,1.34,2.43,2.14s1.81,1.67,2.86,2.69,2.32,2.08,3.69,3.38c-1.49-1.06-4.34-2,1.31,3.32.73.5,2.05,1.17,3.66,2.11l2.68,1.54c1,.6,2.05,1.14,3.21,1.73l3.61,1.89c.63.32,1.24.69,1.91,1l2.05.95c1.38.65,2.79,1.33,4.21,2.05.7.38,1.45.69,2.2,1l2.24,1,2.12,1.41a47.41,47.41,0,0,0,4.71,1.85l4.76,1.71c-1.54-.38-3.75-1-6.39-1.71-.65-.2-1.35-.34-2-.6l-2.1-.77L254,269a23.56,23.56,0,0,1-2.26-1L249.48,267c-1.49-.71-3-1.37-4.42-2.12l-4-2.28-1.84-1.06-.86-.51-.79-.53c.54.48,1,.84,1.34,1.11l.85.68.94.8c.3.24.67.53,1.42,1.06l1.44,1a25.63,25.63,0,0,0,2.27,1.46c1.24.89.14.43-1.5-.51s-3.76-2.45-4.82-3.17l4.14,2.93a24.9,24.9,0,0,0,2.13,1.37l2.18,1.31c1.46.86,2.88,1.78,4.37,2.58l4.53,2.29c-.13-.25.7,0,2,.54.64.28,1.42.56,2.28.84l2.68.95c1.83.64,3.63,1.36,5,1.71s2.23.51,2.09.32L268.3,277l-2.56-.94-5.14-1.88c-1.7-.66-3.34-1.48-5-2.22s-3.37-1.44-5-2.37c-.11-.27.57-.08,1.86.4s3.26,1.14,5.6,2.08c4.68,1.86,11.19,4.08,17.92,6.16,3.35,1.35-2.9.33-2.7.63.46.08,1.5.36,2.82.73.66.2,1.4.37,2.18.53l2.4.53,7,1.63c-1-.09-2-.27-3-.46l-3-.54a51.12,51.12,0,0,0,5.38,1.24c1.72.23,3.37.42,5.08.62,3.39.44,7,.92,11.78,1.44.83,0,1.86.18,2.95.26l3.34.2a22.17,22.17,0,0,0,2.82,0,3.78,3.78,0,0,0,1.41-.21,12.66,12.66,0,0,1-3.29-.57,3.49,3.49,0,0,1-1.6-1.08c-.5-.77.12-1.49,1.83-1.84l3.13-.1c.85,0,1.8-.1,2.83-.21s2.14-.17,3.26-.35a88.4,88.4,0,0,0,11-2.32c2.61-.6.87.39-1,1.43l-1.38.75a10.53,10.53,0,0,0-1,.56c-.48.29-.42.43.74.24a37.83,37.83,0,0,1,4.06-1.91c1.64-.56,1.35-.32,1.54-.26a2.36,2.36,0,0,0,.91-.25c.31-.11.72-.27,1.27-.5a19.06,19.06,0,0,0,2.07-1,10.53,10.53,0,0,1,2.33-1.48l3.4-2c1-.53,1.53-1,1.25-.79s-1.44.79-4.07,2.11c1.56-1,2.8-1.65,3.81-2.32s1.87-1.2,2.77-1.76a66.57,66.57,0,0,0,6.91-5.26c-.6.35-.59.15-.15-.43s1.22-1.6,2.26-2.8,2.21-2.7,3.45-4.2,2.45-3.09,3.5-4.55c-.13.44,1.06-.69,1.63-1.25A106.79,106.79,0,0,0,376,237a98.82,98.82,0,0,0,6.87-16.6c.25-.59,1-2.46,1.43-3.87s.85-2.31.62-.88c.4-2,.64-3.81,1.44-8,1-4,.63-1.68.19.93s-1.1,5.44-.05,2.41a8.27,8.27,0,0,1,.18-2.08c.14-1.16.37-2.71.6-4.43a104,104,0,0,0,.82-10.69c-.35.93-.6,4.43-1.11,8.46s-1.22,8.55-1.82,11.56c-.2-.05-.24-.74-.19-2s.28-3,.46-5.22a160.47,160.47,0,0,0,.86-17.78c-.07-5.67-.12-6.89,0-7s.37,1,.25.06a63.68,63.68,0,0,0-1.63-12,55,55,0,0,0-2.09-6.85c-.36-1-.72-1.87-1.1-2.84s-.84-2-1.29-3.14-1.08-2.4-1.69-3.91l-1.14-2.35c-.38-.86-.86-1.75-1.38-2.7-.38-.78-.65-1.38-.85-1.83a7.77,7.77,0,0,1-.39-.93c-.1-.39.08-.35.35-.17s.64.51.9.7.41.25.29-.14A50.94,50.94,0,0,1,381.59,156c1,3,1.83,5.74,2.61,8.79-.25-1.27-.61-2.51-.95-3.76s-.74-2.48-1.15-3.71c.29.68.68,1.54,1,2.53s.7,2.11,1.08,3.22a49.45,49.45,0,0,1,1.44,6.3,49.73,49.73,0,0,0-1.86-8.26,65.59,65.59,0,0,0-5.45-13,56.66,56.66,0,0,0-9.7-12.79,55.32,55.32,0,0,0-11.6-8.7l-2.28-1c-.79-.35-1.61-.59-2.24-.81-1.28-.43-1.93-.59-.86,0l2.44,1,2.36,1.14c2,1.28-.23.3-2.26-.59s-4-1.43-1-.09l-2.48-.9c-.83-.32-1.74-.5-2.62-.77-1.77-.56-3.67-.88-5.63-1.32a102.84,102.84,0,0,0-13.16-1.42c-.6-.25-1.22-.41-1.83-.61a5,5,0,0,0,1.13.1l2.49.2c1,.08,2,.08,3,.19s1.87.17,2.56.2c-2-.13-5.76-.66-9.59-.72l-2.85,0c-.94,0-1.85.1-2.72.17s-1.67.16-2.4.26a14.11,14.11,0,0,0-1.93.46l1.72-.12,1.73,0,3.44,0c-7,.61-15.37,2.68-23.73,4.86,1-.13,1.59-.23,2.05-.33s.77-.16,1.14-.25a35.17,35.17,0,0,1,4.84-.78c-2.69.17,2.7-1.1,7.76-1.75,2.53-.39,5-.54,6.23-.7s1.38-.28-.76-.35c.79,0,1.55.07,2.29.08l2.19.11c1.43.06,2.84,0,4.3.17a43.89,43.89,0,0,1,4.62.43l2.57.41c.88.18,1.8.44,2.77.7-.1-.13-.78-.34-.57-.37a8.09,8.09,0,0,1,1.17.15,33.64,33.64,0,0,1,3.58.85c.32,0,1.08.12,1.55.22l.45.16-.37-.15c.3.07.33.07-.13,0a34.2,34.2,0,0,1-3.43-1.18,38.56,38.56,0,0,1,3.82.7,45.78,45.78,0,0,1,5.12,1.66c.87.36,1.78.64,2.6,1.06l2.38,1.14c1.48.76,2.7,1.51,3.57,2,3.43,2.51-1.58-.83.2.67l2.44,1.52c.81.5,1.55,1.11,2.34,1.67a10,10,0,0,0,1.18,1.44L368,138c.88,1.22,1,1.33-2.66-2a52.61,52.61,0,0,1,6,6.5c.37.54.79,1.09,1.17,1.67s.77,1.21,1.16,1.84c.83,1.22,1.5,2.6,2.26,3.89s1.36,2.65,2,3.89l1.56,3.45c1.54,3.91,3.61,10.08,2.37,6.58a84,84,0,0,1,2.86,13.86l-.1.14a107.2,107.2,0,0,1,0,21.72,90.61,90.61,0,0,1-1.92,11.31c-.41,1.9-1,3.78-1.54,5.68-.3,1-.63,1.88-1,2.83s-.66,1.88-1.05,2.81a81.1,81.1,0,0,1-6.88,16.14l-1.07,1.17c-.7,1.34-1.69,3-2.77,4.67s-2.34,3.48-3.6,5.1-2.48,3.11-3.45,4.38a32.07,32.07,0,0,0-2.16,2.72c-2.57,2-7.64,7.27-14,11.61a70.63,70.63,0,0,1-9.95,5.75c-1.69.71-3.27,1.49-4.82,2l-2.2.77c-.7.23-1.39.38-2,.56l-.24.59a73,73,0,0,1-23,2.62l.54.47h-1.53l-1.63-.14c-1.11-.11-2.28-.22-3.51-.39-2.45-.43-5.11-.94-7.9-1.49-1.41-.23-2.81-.63-4.25-1l-4.37-1.16-2.23-.59-2.21-.73-4.46-1.44a43.92,43.92,0,0,1,6,1.89q-2.62-1-5.33-2c-.9-.33-1.82-.59-2.71-1l-2.67-1.09c-1.79-.74-3.62-1.37-5.4-2.14L256,267a53.1,53.1,0,0,1-5.08-2.65L248.43,263l-1.22-.69-1.15-.78c-1.54-1-3-2.07-4.49-3.1a20.71,20.71,0,0,1-2.07-1.64l-1.95-1.7a39.16,39.16,0,0,1-3.52-2.76c-1-.9-1.84-1.75-2.68-2.59l.63.55-1-.94-1.6-1.63c-.54-.55-1.05-1.18-1.61-1.8l1.34,1.59,1.32,1.34c-.48-.45-1-.92-1.61-1.48L227,245.57c-1.26-1.29-2.7-2.62-4-4l-.72-1.58-.6-.67c-2.36-3-2.18-2.17-1.12-.39-1.35-1.43-2.61-2.72-3.54-3.77a33.35,33.35,0,0,0-4-5.56,37.5,37.5,0,0,1-4.2-6.43c-.45-.49-1.37-1.75-2.52-3.39l-1.88-2.69-2-3c-2.7-4-5.22-8.14-6.13-8.82,0-.17-.51-1.2.57.63-1.08-1.91-2.11-3.85-3.14-5.72s-2.09-3.66-3.12-5.35l-.35-1.93q-2.64-4-5.24-8.08c-2.4-5.33-3.33-7.58-.21-2.67-7.16-12.05-5.5-10-11.75-20.12l.62.33c-2-3.77-5.79-9.47-6.74-11.88a230,230,0,0,0-15.55-26l-3-4.31-3.17-4.3c-2.08-2.93-4.41-5.71-6.62-8.53-1.09-1.42-2.28-2.75-3.43-4.08l-3.39-4-6.66-7.19c.63,1.07.46,1.06-.15.45s-1.77-1.73-3-3-2.65-2.69-3.8-3.78a7.8,7.8,0,0,0-2.53-1.76c-.91-1.17-3.6-3.42-.26-1.09a97.37,97.37,0,0,0-13-8.59l-2.83-1.45c-1-.43-1.91-.81-2.86-1.2a26.3,26.3,0,0,0-3-1,27,27,0,0,0-3.13-.83c-.67-.34,0-.24.73-.13s1.41.33.82,0-1.51-.36-2.54-.64-2.09-.59-2.73-.79-.15-.18.74,0,2.16.52,3.16.74c-1.6-.45-3-.88-4.3-1.11s-2.41-.51-3.41-.6A24.8,24.8,0,0,0,78.63,67c-2.13.09-2.72.45-3.22.84a40.67,40.67,0,0,0-8-.23,30.51,30.51,0,0,0-3.24.4c-1.06.22-2.14.45-3.28.76A26.73,26.73,0,0,1,58,68.9c-.13,0,.06-.12.79-.3a34,34,0,0,1,4-.75,60.37,60.37,0,0,0-6.19,1.05c-1.38.32-2.9.65-4.42,1.13-.76.24-1.55.44-2.32.71l-2.29.82c-6.08,2.2-11.15,5.39-11.18,5.76a29.65,29.65,0,0,0-3.31,2c-1.27.89-2.52,1.77-3,2.18a76.41,76.41,0,0,0-8.15,6.75c-1,1-2,1.89-3.07,3.13-.55.61-1.17,1.27-1.82,2S15.69,95,14.9,96l1.85-2.07a24.32,24.32,0,0,1-1.68,2.6c-.61.9-1.31,1.82-2.09,2.85a60.38,60.38,0,0,0-5.16,8.16l0-.23a59,59,0,0,0-4,8.4,32.93,32.93,0,0,0-1.18,3.69c-.23.95-.54,1.87-1,3.7-.22.9-.53,2-.8,3.49-.14.74-.35,1.55-.48,2.47S.17,131,0,132.11l.59-.94c.4.89-.13,4.85,0,10a45.34,45.34,0,0,0,3.24,16.3l-1-3.7c1.06,2.68,2.09,6.57,3.64,10.36.36,1,.82,1.87,1.21,2.8l.62,1.37c.23.43.45.86.68,1.28.45.84.89,1.65,1.32,2.41s.92,1.39,1.35,2,0,.16-.55-.53l-1-1.2L9.25,171c1,1.69,1.91,2.84,2.55,3.78a18.22,18.22,0,0,0,1.54,1.94c.73.81.89.84,1,.76s.14-.26.62.11a11.62,11.62,0,0,1,1.12,1.05c.55.53,1.3,1.25,2.29,2.26.61.88,0,.54-.13.68s0,.26.43.79,1.24,1.31,2.64,2.65,5.74,4.89,11.14,8.27,11.73,6.74,16.28,9.23c-1.94-1.26-3.84-2.49.93-.35,1.8.86,4,1.82,6.21,2.92s4.73,2.14,7.2,3.13,4.92,2,7.26,2.62c1.16.35,2.27.67,3.32.95s2,.43,2.94.58c1,.33,1.33.49,1.35.57.75.16,1.61.39,2.56.58l3.09.59c2.16.47,4.57.75,6.89,1.1,1.16.16,2.31.22,3.4.33s2.14.21,3.1.21c1.91,0,3.47.05,4.39,0a28.71,28.71,0,0,0,8.38.46,29.57,29.57,0,0,0,3-.26c1-.13,2.11-.23,3.2-.41,2.16-.4,4.39-.8,6.53-1.41s4.2-1.28,6.11-1.88l2.69-1,1.23-.46,1.12-.49c2.89-1.18,4.72-2,4.87-1.67a85.61,85.61,0,0,0,15.81-10.49l-.29.42a81.78,81.78,0,0,0,9.62-9.1c1-1.18,1.85-2.19,2.59-3.11s1.35-1.8,2-2.65c1.91-2,.68-.41.59-.18,2.92-3.29,5-5.94,6.8-8.19s3.11-4.15,4.37-6c2.5-3.68,4.66-7.18,8.28-13.53l1.23-1c1-1.75,4.46-7,8.71-13.67s9.29-14.79,13.63-22.08a7.08,7.08,0,0,1-.82,1.69,192.69,192.69,0,0,1,17.9-25c3.15-3.76,6.24-7.06,8.77-9.79a62.76,62.76,0,0,0,5.56-6.32,91,91,0,0,1,9.61-7.92c-3.37,2.22-4.88,3.33-5.42,3.66s-.15-.12.49-.76c1.3-1.27,3.65-3.17.81-1.36a51.12,51.12,0,0,1,4.3-2.9c.75-.44,1.47-.87,2.14-1.25L257,68.1c2.13-1,2.7-1.13-.68.84l-1.11.53c-.49.58.34.21,1.9-.56s3.85-2,6.27-3c1.23-.49,2.45-1,3.64-1.49l3.28-1.13c2-.54,3.28-.83,3.22-.65a65.59,65.59,0,0,1,11.57-2.18l5.88-.58c2-.14,3.92-.12,5.88-.19l2.93-.07c1,0,1.95.09,2.92.13,2,.11,3.9.16,5.83.32l5.76.73,1.43.18c.48.08.95.19,1.42.28l2.82.58,2.82.57c.94.19,1.85.51,2.77.75,1.83.55,3.69,1,5.48,1.62l5.33,2c.9.3,1.73.75,2.6,1.13L341.53,69a90.65,90.65,0,0,1,18.71,12L358,78.38a86.72,86.72,0,0,1,7.75,6.84c.86,1.06,1.37,1.82,1.05,1.65s-1.41-1.36-4.15-3.8c.64.74,1.55,1.59,2.52,2.5s1.92,2,2.87,2.87l1.36,1.28c.42.39.75.79,1.06,1.1a11.86,11.86,0,0,0,1.09,1.06c1.07,1.45,1.85,2.45,2.29,3.16a7.55,7.55,0,0,1,.64,1.22c0,.24-.57-.58-1.43-1.59-1.77-2-4.26-4.92-2.92-3.19L372,93.8a24.16,24.16,0,0,1,1.78,2.38c-.23-.39-.44-.79-.68-1.16,2.85,3.87,3.69,3.9,7.55,11.84,2.08,5.18.76,2.78,1.54,4.82,0,0,0,.18.17.67s.43,1.28.87,2.51a51,51,0,0,1,1.65,6.2l.37,1.57c.13.52.16,1.05.24,1.58l.44,3.18c-.07-1.71,0-3.46-.21-5.18.38,1.38.54,2.86.78,4.16a31.89,31.89,0,0,1,.44,3.23c.09,1.58.25,1.7.33-1.33,0,1.11-.06,2.7,0,4.64s-.16,4.23-.29,6.74a30.28,30.28,0,0,1-.47,3.89c-.22,1.34-.36,2.73-.65,4.12a73.82,73.82,0,0,1-9.12,23l-.42.74-.47.68-.9,1.28-1.57,2.22c-.47.66-.87,1.24-1.23,1.71l-.94,1c-1.22,1.61-2.44,3.22-3.73,4.8s-2.83,3-4.32,4.51c-.38.38-.73.78-1.14,1.14l-1.24,1.06L358.22,192c-.88.73-1.73,1.53-2.69,2.22l-3,2.13c2.07-1.36,3.69-1.7-3.37,3.28.47-.71-.13-.54-1.42.12-.63.33-1.44.79-2.36,1.33l-3.13,1.73a81.34,81.34,0,0,1-7.34,3.51,36.86,36.86,0,0,1-6.51,2.07c1.49-.35.83,0-.87.63-.86.32-2,.65-3.23,1s-2.63.68-4,1c-5.45,1.21-10.63,1.49-5.78,1.55-3.54.3-3.66.09-3.56,0s.15-.17-.1-.24-.83-.09-2.16-.18a54.18,54.18,0,0,1-26.38-5.85c-8.76-4.29-16.89-10.78-24.12-18.31-.35-.13,1.88,2.61-1.41-.48-2.32-2.9-4.42-6-6.46-9-2.51-3.28-3.19-2.42-6.86-9.11.46,1,1.14,2.45-.42.14-2.71-4.41-5.24-9-7.62-13.61s-4.56-9.42-6.63-14.27a261.39,261.39,0,0,1-10.57-30,283.2,283.2,0,0,1-10.55-62.77c.2,5.72-.21,1.93-.61-2.41.16,2.83-.44,0-.63.55-.26-5.9-.46-11.8-.48-17.69-.42-1.59-.6-6.33-.69-10.9s-.08-9-.41-9.89l.13,5.6c-.38-3.72-.83-1.11-1.19,2.3s-.74,7.65-1.23,7.12c.27,2.09.37,4.52.46,7.2s.1,5.62.15,8.73a111.14,111.14,0,0,0,1.95,19.88c.14,3.05-.6-2.54-.64-.9.81,3.43,1.39,7.6,2.39,15.36L206.7,73c1.76,10.85,3.26,18.56,5,26.58.43,2,.89,4,1.4,6.11s1.05,4.24,1.64,6.52c1.21,4.56,2.64,9.6,4.61,15.48l-.15-1.89c1.64,5.06,2,6.14,2.69,8.53.72,1.36.74,1.16.42.19s-.95-2.75-1.6-4.54c-1.24-3.6-2.44-7.27-1.17-4.77.64,3.5,3.74,12.37,7.44,20.69,1.8,4.18,3.79,8.2,5.37,11.49.82,1.63,1.53,3.07,2.08,4.26a22.25,22.25,0,0,1,1.16,2.7c4.17,7.09-.81-2.32,3.43,4.71.29.68.6,1.34.92,2l1.45,1.53c2.92,4.53,4.3,6.9,4.22,7.22-.38-.54-1-1.28-1.53-2s-1.13-1.53-1.54-2.1A82.11,82.11,0,0,0,250.25,186c2.85,3.35,5.61,6,6.42,6.91-1.84-1.93-3.59-3.93-5.28-6a111.63,111.63,0,0,0,12.7,12.4,82.16,82.16,0,0,0,15.66,10.23,63.31,63.31,0,0,0,17.73,5.75,59.59,59.59,0,0,0,8.94.79c1.46,0,2.91,0,4.33-.13s2.82-.2,4.18-.44c-.56,0-1.12,0-1.68-.05,1.05-.1,2-.28,2.89-.39s1.72-.26,2.47-.42l2.12-.4c.65-.14,1.25-.3,1.82-.43,2.27-.49,3.92-1,5.64-1.45s3.45-1,5.79-2l1.89-.76,2.14-1c1.55-.69,3.25-1.65,5.26-2.73-.18.13-.37.24-.56.36,3.09-2,7.24-4.53,11.2-7.55-3.58,2.92,7.31-4.69,2.6-.9,6.95-5.78,8.44-7.48,9.37-8.62.46-.58.8-1,1.5-1.87s1.84-2.06,3.54-4.52l2-1.86,1.45-2.09c.37-.65.73-1.26,1.19-2s1-1.6,1.75-2.74a48.26,48.26,0,0,0,2.71-4.62c-3.42,6.65,3.38-4.78-.42,2.73l1.84-3,.87-1.43.41-.7c.12-.25.24-.49.35-.73q1.36-2.88,2.49-5.43a65.47,65.47,0,0,0,2.79-9.54c.28-1.44.63-2.78.82-4.08s.33-2.56.51-3.76c.46-2.39.52-4.63.95-6.84-.33-4.45-.63-.26-.89,4.37-.29,2.3-.66,4.72-.87,6.25s-.51,2.16-.26.95c-.32,1-.42,1-.37.45,0-.29.11-.73.16-1.3s.1-1.26.17-2,.16-1.6.25-2.48a21.85,21.85,0,0,0,.22-2.71c.05-1.83.12-3.66.21-5.15s0-2.92,0-4.42c0-.75.08-1.53.07-2.35s-.09-1.69-.14-2.63-.13-2-.2-3.08-.38-2.3-.62-3.63a55.18,55.18,0,0,0-2.67-9.37c.53,1.46.61,1.54,1.1,3a46.94,46.94,0,0,0-3.29-8.13c-.65-1.36-1.48-2.67-2.22-4.1l-1.15-2.2c-.44-.72-.89-1.46-1.33-2.24a27.36,27.36,0,0,1-2-2.48l-.46-.65-.5-.62L375,91c-1.22-1.53-2.23-2.77-2.88-3,1.45,1.85,3,3.64,4.38,5.54l2,2.93a31.86,31.86,0,0,1,1.89,3,70.05,70.05,0,0,0-7.51-9.84l-1.12-1.31c-.39-.43-.82-.84-1.25-1.28l-2.64-2.75c-.88-1-2-1.88-3-2.91l-1.64-1.56a23.07,23.07,0,0,0-1.77-1.61,11,11,0,0,1,1.05.69L364,80.11l3.43,2.83c-1.34-1.38-2.73-2.61-4.14-3.85-.68-.64-1.45-1.18-2.2-1.78s-1.51-1.2-2.26-1.86a10.78,10.78,0,0,1,2.83,1.74l1.18.87L364,79.15l2.76,2.49a39.16,39.16,0,0,1,2.85,2.9l2.85,3L375,90.65c.8,1,1.64,1.86,2.27,2.74A24.91,24.91,0,0,0,374.79,90a43.63,43.63,0,0,0-3.25-3.74c-2.11-2.17-3.46-3.6-1.67-2.3-.63-.48-1.25-1-1.91-1.59s-1.39-1.12-2.1-1.74c-1.44-1.23-2.86-2.69-4.6-4l-2.62-2.11a28.64,28.64,0,0,0-2.89-2,42.92,42.92,0,0,0-6.58-3.72l.84-.08c-1.51-.7-4.56-2.3-7.38-3.47l2.65.86c.87.33,1.72.71,2.58,1.06-1-.44-1.89-1-2.85-1.38s-1.92-.83-2.86-1.26l-2.78-1.32c-.92-.46-1.89-.78-2.82-1.18l-2.83-1.13a26.29,26.29,0,0,0-2.85-1c-1.94-.58-3.9-1.13-5.89-1.6l4.91,1.38a20.33,20.33,0,0,1,2.7.88c1.18.49,1.32.62,1.16.67-.33.08-1.8-.21,1.51,1.18l-3.4-1.14c-1-.32-2-.53-2.88-.78-1.74-.47-3.14-.88-4.32-1.25-2.39-.63-3.92-1.05-5.52-1.56l-2.59-.78c-1-.21-2.09-.42-3.48-.66s-3-.51-5.08-.71-4.49-.23-7.43-.33c1.59,0,4.59.24,6.55.43a7.82,7.82,0,0,1,1.87.3c.16.1-.22.06-1.47.08l-7.2-.52c-2.38-.06-4.54-.07-5.93-.16a39.72,39.72,0,0,0-4.38.27c-1,.12-1.6.21-1.9.27-.6.11,0,.12.84.11,1.72,0,4.54-.1,1.26.34-5.29,0-7.59.77-14.23,2.43l-.15-.46a48,48,0,0,0-5.2,1.34,26.14,26.14,0,0,0-3,1.06,10,10,0,0,0-2.28,1.17,9.3,9.3,0,0,1-1.91,1.15c-1.17.56-3.16,1.44-6.71,3.27.91-.67,1.88-1.26,2.84-1.86s1.92-1.23,2.93-1.75a71.54,71.54,0,0,0-7.38,4l1.23-1.34-2.68,1.68-2.24,1.53c-1.42.92-2.59,1.84-3.8,2.69-2.39,1.74-4.73,3.51-8.11,6.41.88-.57.81-.21-.19,1-.5.58-1.24,1.36-2.18,2.34s-2.1,2.19-3.42,3.61c-1.92,1.84-1.5,1.22-1.53,1.16s-.15.07-.74.69S229.85,88,228,90.1a32.3,32.3,0,0,1,6.6-7.59c.24-.46,1.54-2,1.79-2.43a74.25,74.25,0,0,0-7,7.07c-1.11,1.28-2.18,2.53-3.09,3.69S224.65,93,224,93.78c1-1.21,2.18-2.6,2.83-3.29-3.27,4.25-6.32,8.62-9.21,13.09-1.59,1.94-.57.23.47-1.45-.93,1.32-1.66,2.48-2.48,3.8s-1.76,2.79-3.06,4.77c.37-1.23-.19-1.24,3.51-6.88-2.81,4.24-5.47,8.55-8.08,12.87-.7.76-4.54,6.32-3.62,4.58-4.66,7-10,17.94-16.12,27.14-.24.52-.78,1.54-2,3.55-2.81,4.35-5.6,8.35-8.56,12.49s-6.07,8.46-9.7,13.33c-1.63,1.64-3.31,3.21-5,4.77-3.14,3.51-1.41,2-.19,1s2-1.3-3.42,4.49a48.09,48.09,0,0,1-3.91,3.76c-.74.63-1,.75-1.15.72s.17-.76-1.36.44c-.5.48-1,1-1.61,1.58l-1.93,1.72c-.68.62-1.41,1.25-2.21,1.87s-1.6,1.3-2.5,1.92a50,50,0,0,1-12.62,6.71c1.51-.72,2.88-1.31,4.17-2l2-1Zm-109.18-16c.93.64,2.33,1.58,3.72,2.42a34,34,0,0,1,3.27,2.26,13.26,13.26,0,0,1-3.29-1.78c-.54-.38-1.09-.79-1.71-1.25S31.81,187.24,31.06,186.63ZM83.35,71a30.37,30.37,0,0,1-3.12-.44c-1.21-.22-2.59-.37-4-.63,1.06.09,2.2.2,3.4.34S82,70.72,83.35,71Zm292.09,77,.14.19a30.11,30.11,0,0,1,1.37,2.7c-.06-.12-.22-.47-.47-1Zm-5.87-8.41c-.74-.72-.74-.62-.5-.25a16.87,16.87,0,0,1,1.48,1.49c.62.78,1.37,1.76,2.16,2.8a11.38,11.38,0,0,0-.92-1.42A20.34,20.34,0,0,0,369.57,139.62Zm13.15-26.91c-.19-.65-.31-1.32-.56-1.95C383.82,115,383.24,113.87,382.72,112.71Z" transform="translate(0 -0.05)"/><path class="cls-1" d="M63.33,71.07a2.18,2.18,0,0,1-1-.14C61.47,71.13,61.47,71.22,63.33,71.07Z" transform="translate(0 -0.05)"/><path class="cls-1" d="M188.08,148.71l.2-.3a1.57,1.57,0,0,0,.12-.36Z" transform="translate(0 -0.05)"/><path class="cls-1" d="M333.17,280.16a39.66,39.66,0,0,1-4.2,1.18C328.89,281.51,329.9,281.29,333.17,280.16Z" transform="translate(0 -0.05)"/><path class="cls-1" d="M319.84,123.7c2.2-.21,4.4-.47,6.6-.5-3.2,0-4.34.15-6,.16C320.63,123.46,321.9,123.53,319.84,123.7Z" transform="translate(0 -0.05)"/><path class="cls-1" d="M264.64,141.64c-.75.66-1.67,1.31-2.42,2h.36l3.65-2.9C266.8,140.26,266.44,140.36,264.64,141.64Z" transform="translate(0 -0.05)"/><path class="cls-1" d="M313.48,122.88a9.56,9.56,0,0,0-3.18.32c-.85.16-1.83.32-2.88.58l-3.31.85.81-.19c-.61.44.3.32,2-.08S311,123.46,313.48,122.88Z" transform="translate(0 -0.05)"/><path class="cls-1" d="M303,124.9c-1.43.33-2.84.83-4.23,1.19C298.35,126.49,300.52,125.59,303,124.9Z" transform="translate(0 -0.05)"/><path class="cls-1" d="M359.63,131.35c-1.8-1.21-1.43-.26-2.39-1-.58-.2-.08.13.83.65l1.59.88,1.65,1c.52.31,1,.58,1.31.76s.48.29.45.23A20.58,20.58,0,0,0,359.63,131.35Z" transform="translate(0 -0.05)"/><path class="cls-1" d="M309.45,122.28l1.78.17c.85-.28,1.7-.62,2.57-.86C312.34,121.77,310.9,122.05,309.45,122.28Z" transform="translate(0 -0.05)"/><path class="cls-1" d="M346.85,123.29c-1.21-.38-2.45-.67-3.67-1s-2.49-.51-3.74-.78a10.67,10.67,0,0,1-2-.14C342.06,122,347,123.46,346.85,123.29Z" transform="translate(0 -0.05)"/><path class="cls-1" d="M337.4,121.35l-3.46-.37c-1.05-.08-2-.06-2.66-.06.66,0,1.71,0,2.82.14Z" transform="translate(0 -0.05)"/><path class="cls-1" d="M319.79,120.6l2.27-.07c1.8-.18,3.61-.14,5.41-.18-1.28,0-2.56,0-3.84,0Z" transform="translate(0 -0.05)"/><path class="cls-1" d="M387.07,187.8l0,4.17-.19,4.16c.1.86.38-1.4.49-4.51C387.26,189.61,387.26,186.52,387.07,187.8Z" transform="translate(0 -0.05)"/><path class="cls-1" d="M385.12,162.55a23.49,23.49,0,0,1,.57,3.7l.67.11C385.94,165.09,385.57,163.81,385.12,162.55Z" transform="translate(0 -0.05)"/><path class="cls-1" d="M388.58,186.89c.13.42.15,3.49.21,5.12,0,.82,0,1.27.07.85s.13-1.72.17-4.41C388.91,187.58,388.56,179.12,388.58,186.89Z" transform="translate(0 -0.05)"/><path class="cls-1" d="M320.06,282c.71-.11,1.4-.29,2.09-.43l-.5-.93C321.13,281.08,320.61,281.57,320.06,282Z" transform="translate(0 -0.05)"/><path class="cls-1" d="M218.75,244l1.09,1.3c.33.37.64.69.91,1,.54.56.94,1,1.24,1.24a4.77,4.77,0,0,0,1.08.84,3.25,3.25,0,0,1,.94.71c.27.24.61.58,1.08,1.08s1.08,1.12,1.9,1.91c1,.7-.41-.55-1.66-1.92s-2.49-2.73-1.57-1.94l-2.86-2.75c-.81-.77-1.36-1.45-1.8-1.87C218.25,242.67,218.09,242.68,218.75,244Z" transform="translate(0 -0.05)"/><path class="cls-1" d="M223.76,248.15l2.26,2.12C224.75,249.05,224.14,248.49,223.76,248.15Z" transform="translate(0 -0.05)"/><path class="cls-1" d="M206.19,17.54c0-2.12.07-4.23.15-6.35-.11,1.37-.23,2.73-.32,4.1Z" transform="translate(0 -0.05)"/><path class="cls-1" d="M205.39,5.36l.67-1.49L205.52.05A52.67,52.67,0,0,1,205.39,5.36Z" transform="translate(0 -0.05)"/><path class="cls-1" d="M19.37,174.11l-.41-.25a11.05,11.05,0,0,0,1.12,1.54l2.27,2.45L20.83,176l-.75-.93Z" transform="translate(0 -0.05)"/><polygon class="cls-1" points="93.26 210.79 91.83 210.61 94.44 211.5 93.26 210.79"/><path class="cls-1" d="M156.48,188.67c-2.09,2-4.5,4.3-6.76,6.05,1.22-1,2.26-1.89,3.21-2.63s1.72-1.4,2.33-1.91C156.49,189.15,157,188.66,156.48,188.67Z" transform="translate(0 -0.05)"/></g></g></svg>